<svg version="1.2" xmlns="http://www.w3.org/2000/svg" viewBox="0 0 1024 1024" width="1024" height="1024">
	<style>
		.s0 { opacity: .95;fill: #83aac3 } 
		.s1 { opacity: .97;fill: #fdfefd } 
		.s2 { opacity: 1;fill: #22324f } 
	</style>
	<g id="Background">
		<path id="Path 0" class="s0" d="m792.38 509c0 6.33 0.16 8.8 0.36 5.5 0.2-3.3 0.2-8.48 0-11.5-0.2-3.02-0.36-0.32-0.36 6zm-561.03-1c0 4.67 0.17 6.48 0.38 4 0.21-2.48 0.21-6.3 0-8.5-0.21-2.2-0.38-0.18-0.38 4.5zm475.63 196.75l-8.48 8.75c13.57-13.17 17.51-17.11 17.51-17.25-0.01-0.14-0.13-0.25-0.28-0.25-0.15 0-4.09 3.94-8.75 8.75z"/>
		<path id="Path 1" class="s1" d="m688.47 289.28c2.73 2.32 8.58 7.51 13 11.54 4.42 4.02 11.78 11.45 16.36 16.5 4.59 5.05 11.16 12.78 14.61 17.18 3.45 4.4 9.84 13.4 14.21 20 4.37 6.6 11.41 18.98 15.64 27.5 4.22 8.53 9.68 20.9 12.11 27.5 2.44 6.6 6.22 18.53 8.42 26.5 2.19 7.98 4.91 20.58 6.05 28 1.13 7.43 2.57 19.8 3.2 27.5 0.64 7.9 0.85 19.45 0.49 26.5-0.36 6.88-1.31 17.23-2.11 23-0.79 5.78-2.16 14.1-3.03 18.5-0.87 4.4-2.94 12.73-4.61 18.5-1.66 5.78-4.95 15.67-7.3 22-2.35 6.33-7.22 17.58-10.83 25-3.6 7.42-10.23 19.35-14.74 26.5-4.5 7.15-10.24 15.7-12.77 19-2.52 3.3-7.73 9.83-11.57 14.5-3.84 4.67-12.18 13.69-18.54 20.03-6.36 6.34-16.06 15.14-21.56 19.56-5.5 4.42-12.48 9.84-15.5 12.04-3.03 2.2-10.23 6.95-16 10.56-5.78 3.6-14.55 8.58-19.5 11.07-4.95 2.48-13.73 6.54-19.5 9.01-5.78 2.47-16.35 6.32-23.5 8.55-7.15 2.23-18.17 5.2-24.5 6.6-6.33 1.39-17.35 3.22-24.5 4.06-7.15 0.84-20.65 1.52-30 1.52-9.35 0-22.85-0.68-30-1.52-7.15-0.84-19.75-3.05-28-4.92-8.25-1.87-19.73-4.96-25.5-6.87-5.78-1.91-15.45-5.6-21.5-8.19-6.05-2.6-15.28-6.99-20.5-9.76-5.23-2.77-13.78-7.72-19-11-5.23-3.29-14.45-9.71-20.5-14.29-6.05-4.57-15.61-12.5-21.25-17.63-5.64-5.13-14.34-13.82-19.34-19.32-4.99-5.5-12.3-14.18-16.24-19.29-3.95-5.11-7.28-9.27-7.42-9.25-0.14 0.02-0.26 0.38-0.27 0.79-0.01 0.41 0.79 1.65 1.78 2.75 0.99 1.1 2.89 3.58 4.22 5.5 1.33 1.92 3.14 4.17 4.02 5 0.88 0.83 2.7 3.07 4.05 4.98 1.35 1.91 4.92 6.17 7.95 9.45 3.02 3.29 8.47 8.92 12.1 12.52 3.63 3.6 8.81 8.58 11.5 11.05 2.7 2.48 6.48 5.62 8.4 6.99 1.93 1.37 5.3 4.19 7.5 6.25 2.2 2.07 4.45 3.78 5 3.8 0.55 0.02 1.67 0.81 2.5 1.76 0.82 0.94 2.75 2.39 4.28 3.21 1.53 0.82 2.76 1.83 2.75 2.24-0.02 0.41 0.42 0.75 0.97 0.75 0.55 0 3.7 1.8 7 4 3.3 2.2 6.45 4 7 4 0.55 0 1 0.45 1 1 0 0.55 0.9 1 2 1 1.1 0 2.11 0.34 2.25 0.75 0.14 0.41 2.95 2.15 6.25 3.86 3.3 1.71 8.02 4.13 10.5 5.37 2.47 1.25 5.29 2.66 6.25 3.15 0.96 0.48 2.42 0.87 3.25 0.87 0.82 0 1.5 0.45 1.5 1 0 0.55 0.67 1 1.5 1 0.82 0 3.41 0.96 5.75 2.13 2.34 1.16 5.04 2.51 6 3 0.96 0.48 2.87 0.87 4.25 0.87 1.37 0 2.72 0.45 3 1 0.27 0.55 1.62 1 3 1 1.37 0 2.72 0.45 3 1 0.27 0.55 1.62 1 3 1 1.37 0 2.72 0.45 3 1 0.27 0.55 1.85 1 3.5 1 1.65 0 3.22 0.45 3.5 1 0.27 0.55 2.19 0.99 4.25 0.98 2.06-0.01 4.2 0.4 4.75 0.91 0.55 0.5 3.02 1.17 5.5 1.48 2.47 0.3 7.42 1.04 11 1.63 3.57 0.59 11.67 1.59 18 2.22 6.32 0.63 17.12 1.14 24 1.14 6.87-0.01 17.22-0.35 23-0.76 5.77-0.41 11.4-1.14 12.5-1.62 1.1-0.48 4.02-1.13 6.5-1.46 2.47-0.32 6.52-0.84 9-1.15 2.47-0.31 4.93-0.97 5.45-1.47 0.52-0.49 2.66-0.9 4.75-0.9 2.09 0 4.02-0.45 4.3-1 0.27-0.55 2.08-1 4-1 1.92 0 3.72-0.45 4-1 0.27-0.55 1.62-1 3-1 1.37 0 2.72-0.45 3-1 0.27-0.55 1.62-1 3-1 1.37 0 2.72-0.45 3-1 0.27-0.55 1.62-1 3-1 1.37 0 2.5-0.45 2.5-1 0-0.55 1.12-1 2.5-1 1.37 0 2.72-0.45 3-1 0.27-0.55 1.4-1 2.5-1 1.1 0 2-0.45 2-1 0-0.55 0.67-1 1.5-1 0.83 0 2.4-0.45 3.5-1 1.1-0.55 2.9-1.45 4-2 1.1-0.55 2.67-1 3.5-1 0.83 0 1.5-0.45 1.5-1 0-0.55 0.9-1 2-1 1.1 0 2-0.45 2-1 0-0.55 0.9-1 2-1 1.1 0 2-0.45 2-1 0-0.55 0.9-1 2-1 1.1 0 2-0.45 2-1 0-0.55 0.67-1 1.5-1 0.83 0 2.51-0.91 3.75-2.02 1.24-1.11 2.81-2.01 3.5-2 0.69 0.01 1.25-0.43 1.25-0.98 0-0.55 0.79-1.21 1.75-1.46 0.96-0.25 3.87-1.71 6.47-3.25 2.6-1.53 5.64-3.58 6.75-4.54 1.12-0.96 2.37-1.73 2.78-1.72 0.41 0.02 2.21-1.33 4-3 1.79-1.66 3.59-3.01 4-3 0.41 0.02 2.1-1.24 3.75-2.81 1.65-1.56 3.56-3.04 4.23-3.28 0.68-0.24 4.48-3.36 8.45-6.94 3.97-3.58 11.07-10.34 15.77-15.02 4.7-4.69 10.57-10.77 13.05-13.52 2.47-2.74 5.6-6.56 6.95-8.48 1.35-1.91 3.17-4.15 4.05-4.98 0.88-0.83 2.68-3.08 4-5 1.32-1.92 3.1-4.17 3.96-5 0.85-0.83 2.23-2.75 3.05-4.28 0.82-1.53 1.83-2.76 2.24-2.75 0.41 0.02 0.74-0.53 0.73-1.22-0.01-0.69 0.78-2.17 1.75-3.3 0.97-1.13 2.4-3.15 3.18-4.5 0.77-1.35 1.89-3.33 2.5-4.41 0.6-1.08 1.54-2.45 2.09-3.04 0.55-0.59 4.54-8.26 8.86-17.04 4.32-8.78 8.31-17.08 8.86-18.46 0.56-1.37 1.41-3.29 1.9-4.25 0.48-0.96 0.88-2.65 0.88-3.75 0-1.1 0.45-2.22 1-2.5 0.55-0.27 1-1.62 1-3 0-1.37 0.45-2.5 1-2.5 0.55 0 1-1.12 1-2.5 0-1.37 0.45-2.72 1-3 0.55-0.27 1-1.62 1-3 0-1.37 0.45-2.72 1-3 0.55-0.27 1-2.08 1-4 0-1.92 0.45-3.72 1-4 0.55-0.27 1-1.85 1-3.5 0-1.65 0.45-3.22 1-3.5 0.55-0.27 0.99-2.64 0.98-5.25-0.01-2.61 0.4-5.2 0.91-5.75 0.5-0.55 1.21-3.25 1.56-6 0.36-2.75 0.87-8.15 1.13-12 0.27-3.85 0.94-7.9 1.5-9 0.62-1.24 0.81-9.44 0.51-21.5-0.26-10.72-0.75-23.1-1.07-27.5-0.32-4.4-1-8.9-1.51-10-0.51-1.1-1.16-4.47-1.44-7.5-0.29-3.02-0.8-7.97-1.14-11-0.34-3.02-1.03-5.95-1.54-6.5-0.51-0.55-0.92-2.24-0.91-3.75 0.01-1.51-0.43-2.97-0.98-3.25-0.55-0.27-1-1.62-1-3 0-1.37-0.45-2.72-1-3-0.55-0.27-1-2.07-1-4 0-1.92-0.45-3.72-1-4-0.55-0.27-1-1.4-1-2.5 0-1.1-0.45-2.9-1-4-0.55-1.1-1.45-2.9-2-4-0.55-1.1-1-2.9-1-4 0-1.1-0.45-2-1-2-0.55 0-1-0.9-1-2 0-1.1-0.4-2.79-0.89-3.75-0.49-0.96-1.89-4-3.12-6.75-1.22-2.75-3.07-6.69-4.11-8.75-1.03-2.06-1.88-4.42-1.88-5.25 0-0.82-0.35-1.61-0.78-1.75-0.44-0.14-2.57-3.84-4.75-8.22-2.19-4.39-4.42-8.45-4.97-9.04-0.55-0.59-1.63-2.17-2.41-3.53-0.77-1.35-1.89-3.34-2.5-4.41-0.6-1.07-1.89-2.87-2.86-4-0.97-1.13-1.76-2.61-1.75-3.3 0.01-0.69-0.32-1.24-0.73-1.24-0.41 0.01-1.65-1.45-2.74-3.25-1.1-1.79-2.91-4.16-4.02-5.26-1.12-1.1-3.13-3.57-4.46-5.5-1.34-1.92-2.68-3.72-2.99-4-0.3-0.27-1.9-2.3-3.55-4.5-1.64-2.2-8.39-9.4-14.99-16-6.6-6.6-13.8-13.35-16-15-2.2-1.65-5.35-4.24-7-5.75-1.65-1.51-3.45-2.73-4-2.71-0.55 0.02 1.24 1.93 3.97 4.24zm-419.46 355.22c0.02 0.55 0.91 2.12 1.99 3.5 1.08 1.37 1.97 3.06 1.98 3.75 0.01 0.69 0.36 1.25 0.77 1.25 0.41 0 1.31 1.35 2 3 0.69 1.65 1.7 3 2.25 3 0.55 0-0.87-3.04-3.17-6.75-2.29-3.71-4.55-7.2-5.01-7.75q-0.85-1-0.81 0zm698.31 308.25c-0.34 0.96-0.17 2.42 0.39 3.25 0.55 0.83 1.74 1.61 2.65 1.75 1.16 0.18 1.71-0.6 1.87-2.64 0.17-1.99-0.3-3.09-1.5-3.5-0.95-0.34-1.97-0.61-2.25-0.61-0.29 0-0.81 0.79-1.16 1.75zm12.64 14.5c-0.03 1.24 0.65 2.81 1.5 3.5 0.84 0.69 2.22 1.02 3.04 0.75 0.83-0.27 1.79-1.29 2.15-2.25 0.42-1.13-0.02-2.2-1.25-3.02-1.04-0.69-2.69-1.26-3.65-1.25-1.13 0.01-1.77 0.82-1.79 2.27zm-14.71 12.52c-0.94 0.54-1 1.55-0.25 3.98 0.58 1.89 1.83 3.46 3 3.75 1.1 0.27 2.7-0.06 3.54-0.75 0.85-0.69 1.54-2.15 1.52-3.25-0.01-1.1-0.6-2.57-1.29-3.27-0.7-0.69-2.17-1.25-3.27-1.23-1.1 0.02-2.56 0.36-3.25 0.77z"/>
		<path id="Path 2" class="s2" d="m489.93 232.5c-0.3 0.35-4.79 1.05-9.99 1.54-5.19 0.5-12.14 1.35-15.44 1.9-3.3 0.55-7.8 1.26-10 1.59-2.2 0.33-4.9 0.98-6 1.46-1.1 0.47-3.35 1.15-5 1.51-1.65 0.35-4.46 0.84-6.25 1.07-1.79 0.24-3.48 0.88-3.75 1.43-0.27 0.55-1.63 1-3 1-1.38 0-3.4 0.45-4.5 1-1.1 0.55-2.9 1.45-4 2-1.1 0.55-2.67 1-3.5 1-0.83 0-2.4 0.45-3.5 1-1.1 0.55-2.9 1.45-4 2-1.1 0.55-2.67 1-3.5 1-0.83 0-2.29 0.41-3.25 0.91-0.96 0.5-6.02 2.98-11.25 5.52-5.23 2.53-12.42 6.21-16 8.19-3.58 1.97-7.74 4.44-9.25 5.48-1.51 1.05-3.2 1.9-3.75 1.9-0.55 0-0.98 0.34-0.96 0.75 0.02 0.41-1.35 1.43-3.04 2.25-1.69 0.82-3.05 1.73-3.01 2 0.04 0.27-1.07 1.06-2.46 1.75-1.39 0.69-6.23 4.06-10.76 7.5-4.52 3.44-10.94 8.72-14.25 11.74-3.31 3.02-9.62 9.09-14.03 13.5-4.41 4.4-10.26 10.49-13.01 13.51-2.74 3.02-6.09 7.08-7.44 9-1.34 1.92-2.69 3.73-2.99 4-0.31 0.27-2.42 2.98-4.69 6-2.28 3.02-6.89 9.77-10.25 15-3.36 5.23-6.46 9.95-6.9 10.5-0.45 0.55-4.1 7.75-8.13 16-4.03 8.25-7.78 16.13-8.34 17.5-0.55 1.38-1.45 3.63-1.99 5-0.54 1.38-1.38 3.29-1.87 4.25-0.48 0.96-0.87 2.54-0.86 3.5 0.01 0.96-0.37 2.2-0.83 2.75-0.46 0.55-1.43 3.02-2.15 5.5-0.72 2.48-1.76 6.08-2.3 8-0.55 1.92-1.39 4.51-1.87 5.75-0.48 1.24-0.87 3.38-0.87 4.75 0 1.38-0.45 2.73-1 3-0.55 0.27-0.99 1.96-0.98 3.75 0.01 1.79-0.4 3.7-0.91 4.25-0.5 0.55-1.19 3.25-1.54 6-0.34 2.75-1.05 8.38-1.58 12.5-0.53 4.13-1.48 12.23-2.12 18-0.64 5.77-1.16 15.23-1.16 21 0 5.77 0.51 15.23 1.14 21 0.64 5.77 1.59 13.42 2.13 17 0.53 3.58 1.25 8.52 1.6 11 0.34 2.48 1.04 4.95 1.54 5.5 0.5 0.55 0.91 2.69 0.9 4.75-0.01 2.06 0.43 3.75 0.98 3.75 0.55 0 1 1.35 1 3 0 1.65 0.45 3.23 1 3.5 0.55 0.27 1 1.85 1 3.5 0 1.65 0.45 3.23 1 3.5 0.55 0.27 1 1.85 1 3.5 0 1.65 0.45 3.23 1 3.5 0.55 0.27 1 1.63 1 3 0 1.38 0.34 2.5 0.75 2.49 0.41 0 1.39 2.14 2.17 4.75 0.78 2.62 1.74 5.43 2.13 6.26 0.39 0.83 1.16 2.63 1.71 4 0.55 1.38 3.23 7 5.97 12.5 2.73 5.5 6.43 12.7 8.21 16 1.78 3.3 5.72 9.83 8.76 14.5 3.04 4.67 8.59 12.55 12.32 17.5 3.73 4.95 11.47 14.17 17.19 20.5 5.72 6.33 15.1 15.71 20.85 20.86 5.74 5.15 15.02 12.8 20.61 17 5.59 4.2 14.59 10.39 20 13.74 5.41 3.36 13.43 8.04 17.83 10.4 4.4 2.37 13.4 6.64 20 9.5 6.6 2.87 16.95 6.84 23 8.83 6.05 2 15.73 4.73 21.5 6.06 5.77 1.34 14.77 3.15 20 4.01 5.23 0.87 16.25 2.08 24.5 2.7 8.25 0.61 20.4 0.82 27 0.47 6.6-0.36 16.05-1.12 21-1.69 4.95-0.57 15.08-2.31 22.5-3.86 7.42-1.56 20.02-4.96 28-7.55 7.98-2.6 20.8-7.6 28.5-11.11 7.7-3.5 17.6-8.46 22-11.01 4.4-2.54 12.27-7.44 17.5-10.88 5.23-3.44 14.23-9.97 20-14.53 5.77-4.55 17.26-15.06 25.52-23.36 8.25-8.29 18.83-19.94 23.5-25.89 4.66-5.94 12.31-16.77 16.98-24.06 4.67-7.3 11.6-19.53 15.38-27.2 3.78-7.66 8.89-19.33 11.35-25.93 2.46-6.6 6.03-17.4 7.93-24 1.9-6.6 4.3-16.95 5.33-23 1.04-6.05 2.37-15.73 2.96-21.5 0.58-5.77 1.06-16.35 1.06-23.5-0.01-7.15-0.47-17.95-1.03-24-0.55-6.05-1.91-16.4-3-23-1.1-6.6-3.56-17.74-5.49-24.75-1.92-7.01-5.54-18.49-8.04-25.5-2.5-7.01-8.12-19.95-12.48-28.75-4.37-8.8-11.83-21.85-16.59-29-4.76-7.15-12.06-17.27-16.23-22.5-4.18-5.23-13.23-15.13-20.12-22-6.9-6.88-16.81-15.93-22.03-20.12-5.23-4.19-13.77-10.59-19-14.21-5.23-3.63-10.06-6.61-10.75-6.63-0.69-0.02-1.23-0.38-1.21-0.79 0.02-0.41-6.62-4.08-14.75-8.15-8.13-4.07-16.81-8.28-19.29-9.36-2.48-1.08-5.29-2.36-6.25-2.85-0.96-0.49-2.65-0.89-3.75-0.89-1.1 0-2-0.45-2-1 0-0.55-1.13-1-2.5-1-1.38 0-2.73-0.45-3-1-0.27-0.55-1.63-1-3-1-1.38 0-2.73-0.45-3-1-0.27-0.55-1.63-1-3-1-1.38 0-2.73-0.45-3-1-0.27-0.55-2.08-1-4-1-1.92 0-3.73-0.45-4-1-0.27-0.55-2.08-1-4-1-1.92 0-3.73-0.45-4-1-0.27-0.55-2.3-1-4.5-1-2.2 0-4.23-0.45-4.5-1-0.27-0.55-2.64-0.99-5.25-0.98-2.61 0.01-5.2-0.41-5.75-0.93-0.55-0.51-4.38-1.2-8.5-1.53-4.13-0.33-18.53-0.85-32.01-1.15-13.48-0.31-24.75-0.27-25.06 0.09z"/>
		<path id="Path 3" fill-rule="evenodd" class="s0" d="m678.73 373.5c0.21 2.2 0.21 5.57 0 7.5-0.22 1.93-0.39 0.13-0.39-4 0-4.13 0.17-5.7 0.39-3.5zm-360.73 24.86c5.23 0 7.25 0.17 4.5 0.38-2.75 0.2-7.02 0.2-9.5 0-2.48-0.21-0.23-0.38 5-0.38zm388 0c5.23 0 7.25 0.17 4.5 0.38-2.75 0.2-7.02 0.2-9.5 0-2.48-0.21-0.23-0.38 5-0.38zm-92 14.98c5.01 0.22 7.76 0.98 12 3.32 3.3 1.82 7 5 9.24 7.94 2.06 2.69 4.43 6.92 5.28 9.4 0.85 2.48 1.81 7.65 2.13 11.5 0.42 4.91 0.11 8.86-1.03 13.25-0.89 3.44-2.8 8.61-4.25 11.5-1.51 3.01-5.87 8.46-10.25 12.78-5.97 5.91-9.68 8.56-17.12 12.25-5.23 2.59-10.17 4.73-11 4.74-0.83 0.01-6-2.19-21.5-9.8l16.5-7.93c9.08-4.36 18.23-9.47 20.35-11.36 2.11-1.89 5.18-6.13 6.82-9.43 2.66-5.36 2.94-6.81 2.65-13.67-0.24-5.87-0.81-8.35-2.41-10.5-1.15-1.56-3.95-3.51-6.23-4.33-3.86-1.4-4.66-1.35-11.91 0.78-4.27 1.26-14.07 5.4-21.77 9.21-7.7 3.81-16.14 8.3-23.5 13.01v22c0 20.52 0.12 21.96 1.75 21.39 0.96-0.34 2.54-0.79 3.5-1 1.31-0.29 1.99 0.55 2.71 3.36 0.52 2.06 1.43 6 2.01 8.75 0.58 2.75 0.93 5.06 0.79 5.13-0.14 0.07-2.62 1.31-10.76 5.37v59c0 46.52 0.26 59 1.25 59.02 0.69 0.01-2.58 1.6-7.25 3.53-4.67 1.93-8.93 3.95-9.45 4.48-0.52 0.53-1.53 0.97-2.25 0.97-0.96 0-1.3-2.05-1.28-15.5l-11.52 11 12-12.57 0.25-10.46c0.14-5.76-0.11-10.47-0.55-10.47-0.44 0-1.24 0.34-1.77 0.75-0.54 0.41-0.18-0.04 0.8-1 1.66-1.65 1.77-6.54 1.77-162.75l6.48-4.75c3.56-2.61 11.78-7.78 18.25-11.48 6.47-3.71 16.27-8.58 21.77-10.83 5.5-2.25 12.48-4.72 15.5-5.49 3.02-0.77 8.42-1.27 12-1.11zm-192.25 32.16c0.15 16.5 0.15 43.95 0 61-0.15 17.05-0.28 3.55-0.28-30 0-33.55 0.13-47.5 0.28-31zm-18.51-16.7c0.4 0.38 0.63 28.15 0.26 122.7l-0.5-61.7c-0.28-33.94-0.17-61.39 0.24-61zm100.25 12.7l0.23 91.5c0.13 50.33 0 91.73-0.28 92-0.28 0.27-1.95-1.06-6.94-6.45l6.54 5.95zm17 1l0.48 182q-0.14 0.02-0.22-0.03c-0.41-0.26-0.64-41.31-0.5-91.22zm0.48 182l6.53-6-3 3.22c-1.44 1.54-2.91 2.68-3.53 2.78zm-0.01 0q0.01 0 0.01 0zm-35.23-172.5c0.2 2.47 0.2 6.97 0 10-0.2 3.02-0.37 1-0.37-4.5 0-5.5 0.16-7.98 0.37-5.5zm-24.99 30.5c0.16 16.5 0.16 43.72 0 60.5-0.15 16.77-0.28 3.27-0.28-30 0-33.28 0.13-47 0.28-30.5zm218 14.5c0.18 5.77 0.18 15.45 0 21.5-0.18 6.05-0.32 1.32-0.32-10.5 0-11.83 0.14-16.78 0.32-11zm-105.02 94.5c0.22 2.2 0.22 5.57 0 7.5-0.21 1.92-0.39 0.12-0.39-4 0-4.13 0.18-5.7 0.39-3.5zm-234.23 26.92c11 0 15.73 0.14 10.5 0.32-5.22 0.18-14.22 0.18-20 0-5.77-0.18-1.5-0.32 9.5-0.32zm346-0.01c10.45 0 14.95 0.15 10 0.33-4.95 0.18-13.5 0.18-19 0-5.5-0.18-1.45-0.33 9-0.33z"/>
		<path id="Path 4" fill-rule="evenodd" class="s1" d="m351.17 363.79c2.93 0.15 11.63 0.97 19.33 1.81 7.7 0.84 20.52 2.82 28.5 4.41 7.98 1.59 20.12 4.53 27 6.53 6.87 2.01 17 5.44 22.5 7.62 5.5 2.18 14.5 6.22 20 8.97 5.5 2.76 14.27 7.85 19.5 11.32 5.23 3.48 12.76 9.3 24 19.55l8.25-7.15c4.54-3.94 12.52-9.98 17.75-13.43 5.23-3.46 15.12-8.98 22-12.27 6.87-3.29 17.9-7.84 24.5-10.11 6.6-2.27 16.05-5.22 21-6.55 4.95-1.33 14.85-3.58 22-4.98 7.15-1.41 18.4-3.2 25-3.98 6.6-0.79 15.15-1.56 26-2.03v86.25c0 47.44-0.34 86.25-0.75 86.25-0.41 0-4.46-2-17.25-8.9l-0.5-144.1-2.75 0.01c-1.51 0-9.73 1.17-18.25 2.59-8.52 1.42-19.77 3.68-25 5.03-5.23 1.34-13.77 3.82-19 5.51-5.23 1.68-13.77 4.84-19 7.01-5.23 2.17-12.42 5.56-16 7.52-3.58 1.97-10.21 6-14.75 8.95-4.54 2.96-11.45 8.42-15.37 12.13-3.91 3.71-7.73 7.99-8.5 9.5-1.14 2.28-1.38 18.09-1.38 92.75 0 49.5 0.34 90.21 0.75 90.47 0.41 0.25 2.33-1.13 4.25-3.07 1.92-1.94 5.75-5.29 8.5-7.44 2.75-2.15 5.34-3.92 5.75-3.93 0.41-0.02 0.64 4.69 0.25 20.96l-27 27.22-11.02-10.85c-6.06-5.97-14.84-14.06-19.5-17.97-4.67-3.91-12.31-9.67-16.98-12.8-4.68-3.13-13.45-8.11-19.5-11.08-6.05-2.96-15.5-7.04-21-9.05-5.5-2.02-15.85-5.15-23-6.95-7.15-1.8-19.75-4.2-28-5.34-8.25-1.14-18.04-2.32-28.5-3.17v-142l4.25 0.01c2.34 0 6.62 0.34 14.78 1.49l-0.02 62.25c0 34.24 0.33 62.25 0.74 62.25 0.41 0.01 6.6 0.87 13.75 1.91 7.15 1.05 18.85 3.35 26 5.1 7.15 1.76 17.5 4.77 23 6.7 5.5 1.92 16.07 6.43 23.5 10.02 7.42 3.59 17.32 9.1 22 12.24 4.67 3.14 12.55 9.08 17.5 13.2 4.95 4.12 9.67 8.26 10.5 9.2 0.82 0.95 1.84 1.7 2.25 1.67 0.41-0.02 0.75-41.21 0.75-183.04l-3.75-4.41c-2.06-2.42-6.9-7.04-10.75-10.25-3.85-3.22-9.93-7.7-13.5-9.95-3.58-2.26-9.65-5.7-13.5-7.64-3.85-1.94-11.5-5.41-17-7.7-5.5-2.3-16.86-6.17-25.25-8.61-8.39-2.44-21.66-5.54-29.5-6.87-7.84-1.34-17.07-2.81-26.78-4.07l0.01 21 7.76 0.76c4.27 0.42 14.06 2.04 21.76 3.61 7.7 1.57 17.15 3.81 28 7.07v122.52l20 7.18 0.5-121.64 2.25 0.6c1.24 0.33 6.52 2.86 11.75 5.63 5.23 2.76 13.1 7.45 17.5 10.41 4.4 2.97 8.73 5.95 9.63 6.63 1.3 0.98 1.71 3.58 2.37 24.52l-3.5-2.92c-1.93-1.61-7.21-5.61-11.75-8.89-4.54-3.29-8.7-5.98-9.25-5.98-0.65 0-1.09 20.68-1.5 119.11l-4.5-2.39c-2.48-1.31-10.35-4.68-17.5-7.49-7.15-2.81-17.05-6.27-22-7.69-4.95-1.42-9.56-2.57-10.25-2.56-0.98 0.02-1.3-13.11-1.75-123.42l-9.5-2.27c-5.23-1.24-15.35-2.93-22.5-3.76-7.15-0.82-16.04-1.73-26.5-2.53l-0.17-27.83c-0.09-15.31 0.1-28.02 0.42-28.25 0.32-0.23 2.98-0.29 5.92-0.13zm-42.17 35.21h18v201h8.75c4.81 0 16.17 0.7 25.25 1.56 9.07 0.86 21.67 2.45 28 3.53 6.32 1.08 16.67 3.34 23 5.03 6.32 1.69 15.77 4.66 21 6.6 5.23 1.94 13.77 5.67 19 8.29 5.23 2.61 13.55 7.5 18.5 10.86 4.95 3.36 10.35 7.25 12 8.65 2.93 2.48 2.82 2.47-4.5-0.62-4.13-1.74-11.77-4.72-17-6.62-5.23-1.9-16.36-5.22-24.75-7.37-8.39-2.15-21.89-5-30-6.33-8.11-1.33-20.38-3.02-27.25-3.75-7.38-0.78-24.29-1.33-70-1.33zm388 0h18v219.5l-28.25 0.01c-15.68 0.01-33.81 0.59-40.75 1.3-6.88 0.7-19.14 2.39-27.25 3.74-8.11 1.35-19.36 3.54-25 4.87-5.64 1.34-15.88 4.27-22.75 6.52-6.88 2.25-12.61 4.08-12.75 4.08-0.14-0.01-0.25-1.26-0.25-2.77 0-2.15 0.93-3.33 4.25-5.4 2.34-1.45 7.96-4.49 12.5-6.75 4.54-2.25 11.62-5.45 15.75-7.1 4.12-1.65 12.34-4.34 18.25-5.97 5.91-1.63 14.12-3.67 18.25-4.53 4.12-0.86 14.7-2.46 23.5-3.55 8.8-1.09 22.86-2.31 46.51-3.45zm-114.5 107.45c0.55 0.23 16.75 7.67 36 16.53 19.25 8.87 35.09 16.21 35.21 16.32 0.12 0.11-5.41 2.67-12.28 5.7-6.87 3.02-12.47 5.84-12.46 6.25 0.02 0.41 0.48 0.97 1.03 1.25 0.55 0.27 6.28 7.04 12.75 15.03 6.46 7.99 11.52 14.64 11.25 14.77-0.28 0.12-2.87 2.13-5.75 4.46-2.89 2.33-5.68 4.13-6.21 3.99-0.52-0.14-4.01-3.91-7.75-8.37-3.73-4.47-9.04-10.86-11.79-14.19-2.75-3.34-5.45-5.96-6-5.83-0.55 0.14-4.15 4.84-8 10.45-3.85 5.62-7.3 9.87-7.67 9.45-0.36-0.42-4.58-16.29-9.36-35.26-4.78-18.98-8.98-35.95-9.33-37.73-0.4-1.99-0.26-3.07 0.36-2.82zm95.74 37.54c0.41 0 0.75 8.34 0.76 37.01h-2.5c-1.84 0-3.84-1.6-7.5-6-2.75-3.3-5.69-7.69-6.53-9.75-0.84-2.06-1.54-5.9-1.62-13.32l8.32-3.98c4.58-2.18 8.66-3.97 9.07-3.96zm-92.74 39.04c0.55-0.05 2 3.86 3.23 8.69 1.23 4.83 2.13 8.79 2 8.8-0.13 0.01-3.93 1.81-8.45 4-4.52 2.19-8.43 3.75-8.68 3.48-0.25-0.28-0.17-4.82 0.81-19.72l5.05-2.58c2.77-1.42 5.49-2.62 6.04-2.67zm31.75 1.97c0.65 0 1.76 1.12 2.47 2.5 0.7 1.37 1.16 2.63 1.03 2.79-0.14 0.16-2.28 0.8-4.75 1.43-2.48 0.62-4.6 1.05-4.72 0.95-0.13-0.09 0.9-1.86 2.28-3.92 1.37-2.06 3.03-3.75 3.69-3.75z"/>
	</g>
</svg>